<?xml version="1.0" encoding="UTF-8"?><svg id="Vrstva_1" xmlns="http://www.w3.org/2000/svg" viewBox="0 0 340.5 94.02"><defs><style>.cls-1{fill:#f0bc66;stroke-width:0px;}</style></defs><path class="cls-1" d="M94.44,48.09l.57-7.91c1.54-.21,2.73-1.52,2.73-3.11,0-1.74-1.41-3.16-3.15-3.16-.59,0-1.14.18-1.62.46l-5.25-5.67c.55-.69.88-1.56.88-2.51,0-2.25-1.83-4.08-4.08-4.08-1.45,0-2.72.76-3.44,1.91l-10.44-4.48c.08-.4.11-.82.03-1.23-.24-1.25-1.23-2.24-2.48-2.48-1.04-.2-2.11.12-2.85.86-.56.56-.88,1.31-.92,2.1l-14.71,2.43c-.13-.42-.31-.84-.57-1.24-.19-.3-.46-.57-.76-.76-1.85-1.19-3.98-1.03-5.42.41-1.44,1.44-1.6,3.56-.41,5.42.13.2.29.36.46.52l-10.53,15.6c-.25-.06-.5-.1-.77-.1-1.74,0-3.15,1.42-3.15,3.15s1.41,3.15,3.15,3.15c.13,0,.25-.02.38-.04l4,7.7c-.51.46-.83,1.12-.83,1.86,0,1.39,1.13,2.53,2.52,2.53,1.18,0,2.17-.82,2.44-1.92l11.26-.17c.32,1.41,1.57,2.47,3.07,2.47.96,0,1.81-.44,2.39-1.12l7.06,3.85c-.08.28-.13.56-.13.86,0,1.48,1.03,2.72,2.41,3.06v7.77c-1.17.22-2.07,1.24-2.07,2.48,0,1.39,1.13,2.53,2.53,2.53s2.52-1.13,2.52-2.53c0-.75-.34-1.42-.86-1.89l8.12-9.61.17.02v-.02s5.04.36,5.04.36c.2,1.2,1.23,2.11,2.48,2.11,1.39,0,2.52-1.13,2.52-2.53,0-.64-.25-1.23-.65-1.67l5.58-7.78c.55.28,1.16.45,1.82.45,2.25,0,4.08-1.83,4.08-4.08,0-1.93-1.35-3.54-3.15-3.96ZM82.07,53.55c-.41-.85-1.27-1.44-2.27-1.44-.03,0-.07,0-.1.01l-1.84-5.99c.35-.19.65-.45.91-.75l10.81,5.66c-.08.33-.14.66-.14,1.02,0,.04.01.07.01.11l-7.36,1.39ZM75.85,63.82l-5.67-.68c-.03-.35-.1-.69-.24-1l8.22-5.6c.07.06.14.13.22.18l-2.53,7.1ZM34.85,43.92l8.9-2.34,1.5,5.9,5.93-1.51,2.01,7.86c-.4.2-.74.47-1.03.81l-17.5-9.31c.13-.35.21-.72.21-1.11,0-.1-.02-.2-.03-.3ZM48.73,25.4c.16-.16.3-.34.43-.52l17.66,8.79c-.03.17-.05.34-.05.51,0,0,0,0,0,0l-10.39,2.74-1.46-5.74-5.82,1.48-1.64-6.4c.46-.2.88-.48,1.26-.86ZM90.08,49.86l-10.72-5.62c.08-.28.13-.56.13-.86,0-.14-.02-.27-.04-.4l12.44-4.31c.41.68,1.06,1.18,1.83,1.41l-.57,7.92c-1.29.11-2.41.81-3.08,1.85ZM77.28,54.63c0,.3.06.57.15.84l-8.24,5.62c-.1-.1-.21-.19-.32-.27l6.75-14.38c.23.06.48.09.73.09.1,0,.19-.02.29-.03l1.84,5.99c-.71.45-1.2,1.23-1.2,2.14ZM63.69,44.34l4.87-7.76c.24.07.49.13.75.13.34,0,.67-.07.97-.2l3.68,4.82c-.43.49-.7,1.11-.75,1.8l-9.52,1.2ZM91.43,37.07c0,.14.02.27.04.4l-12.44,4.31c-.21-.35-.48-.64-.8-.89l5.13-10.79c.37.11.74.18,1.14.18.84,0,1.62-.26,2.27-.69l5.24,5.66c-.37.52-.59,1.14-.59,1.82ZM82.21,29.56l-5.13,10.77c-.24-.06-.49-.1-.74-.1-.5,0-.96.13-1.38.33l-3.67-4.83c.34-.43.55-.96.55-1.55,0-.19-.03-.38-.07-.56l9.5-4.98c.27.36.58.67.95.92ZM55.79,53.73c-.37-.16-.78-.24-1.21-.24-.05,0-.09.01-.14.01l-2.01-7.86,5.81-1.48-1.53-6,10.41-2.74c.1.17.21.34.35.48l-5.58,8.89-6.1,8.95ZM73.37,44.41c.21.6.58,1.11,1.08,1.49l-6.76,14.41c-.21-.04-.42-.07-.64-.07-.07,0-.14.02-.21.02l-3.61-14.57,10.15-1.28ZM80.57,25.21c-.08.32-.14.65-.14.99,0,.46.09.89.23,1.29l-9.5,4.99c-.39-.43-.93-.71-1.53-.79l-1.24-9.73c.53-.14,1.02-.4,1.41-.8.13-.13.23-.28.34-.43l10.43,4.48ZM64.63,20.07c.38.99,1.26,1.76,2.32,1.96.05,0,.1,0,.15.01l1.25,9.8c-.37.15-.69.39-.95.68l-17.67-8.79c.13-.4.18-.81.18-1.24l14.71-2.43ZM44.12,26.22c.58.24,1.17.38,1.75.38.12,0,.23-.02.35-.03l1.64,6.41-5.92,1.51,1.49,5.84-8.97,2.36c-.21-.37-.48-.69-.82-.95l10.47-15.52ZM33.33,46.91c.23-.14.45-.3.64-.5l17.59,9.35c-.03.09-.06.18-.08.28l-11.26.17c-.3-1.06-1.27-1.85-2.42-1.85-.19,0-.38.03-.56.07l-3.91-7.52ZM57.58,57.55c.09-.29.15-.59.15-.91,0-.85-.34-1.62-.89-2.18l5.3-7.77,3.45,13.92c-.38.2-.7.46-.97.79l-7.04-3.84ZM67.59,73.81v-7.32c1.14-.2,2.06-1.01,2.42-2.08l5,.6-7.43,8.79ZM79.59,57.14c.07,0,.14.02.21.02.12,0,.24-.02.35-.04l2.54,6.03c-.37.29-.66.67-.83,1.12l-4.7-.34,2.42-6.8ZM85.03,62.76c-.25-.09-.52-.14-.8-.14-.12,0-.24.02-.35.04l-2.54-6.03c.55-.43.92-1.07.97-1.81l7.37-1.39c.21.58.53,1.1.96,1.52l-5.6,7.81Z"/><path class="cls-1" d="M150.2,50.39l-.16-.22c-1.56-2.17-3.16-4.4-3.97-5.5l8.53-11.78h-6.61l-5.25,7.65-5.22-7.47-.12-.18h-6.77l8.64,11.78-8.92,12.21h6.67l5.54-8.03,5.63,8.03h6.73l-.64-.85c-.67-.9-2.4-3.31-4.08-5.64Z"/><path class="cls-1" d="M169.86,32.37c-2.9,0-5.48,1.08-7.14,2.95v-2.42h-5.4v33.05h5.5v-11.15c1.11,1.14,3.31,2.71,6.9,2.71,6.7,0,11.21-5.08,11.21-12.64s-4.34-12.5-11.07-12.5ZM169.05,52.44c-3.7,0-6.28-3.11-6.28-7.57s2.58-7.47,6.28-7.47,6.23,3,6.23,7.47-2.51,7.57-6.23,7.57Z"/><path class="cls-1" d="M222.9,32.51c-1.93,0-4.47.56-6.33,3v-2.62h-5.45v23.99h5.55v-12.02c0-4.39,1.88-6.52,5.76-6.52.6,0,1.25.05,1.88.14l.61.09v-5.82l-.43-.09c-.28-.06-.94-.15-1.58-.15Z"/><path class="cls-1" d="M237.28,25.65h-5.17v4.25c0,1.93-1.06,2.99-2.99,2.99h-1.77v5.12h4.38v12.05c0,4.42,2.59,7.06,6.92,7.06,1.58,0,2.81-.3,3.32-.49l.27-.1v-4.87l-.66.17c-.33.08-1.1.17-1.63.17-1.94,0-2.66-.71-2.66-2.61v-11.38h4.96v-5.12h-4.96v-7.24Z"/><path class="cls-1" d="M259.43,32.51c-1.93,0-4.47.56-6.33,3v-2.62h-5.45v23.99h5.55v-12.02c0-4.39,1.88-6.52,5.76-6.52.6,0,1.25.05,1.88.14l.61.09v-5.82l-.43-.09c-.28-.06-.94-.15-1.58-.15Z"/><path class="cls-1" d="M129.79,49.33s-4.06,0-4.67-.01h-.25l-.16.3c-1.07,1.96-2.87,2.96-5.37,2.96-3.41,0-6.02-2.45-6.35-5.89h17.14l.07-.45c.05-.3.1-.9.1-1.52,0-7.74-4.42-12.54-11.54-12.54-5.65,0-11.5,4.73-11.5,12.64,0,3.82,1.25,7.08,3.62,9.42,2.2,2.17,5.2,3.37,8.45,3.37,5.17,0,9.31-2.92,10.8-7.62l.21-.65h-.57ZM118.82,37.2c3.3,0,5.41,1.78,5.72,4.8h-11.37c.39-2.39,2.25-4.8,5.65-4.8Z"/><path class="cls-1" d="M311.47,49.33s-4.08,0-4.67-.01h-.25l-.16.3c-1.07,1.96-2.87,2.96-5.37,2.96-3.41,0-6.02-2.45-6.35-5.89h17.14l.07-.45c.05-.3.1-.9.1-1.52,0-7.74-4.42-12.54-11.54-12.54-5.65,0-11.5,4.73-11.5,12.64,0,3.82,1.25,7.08,3.62,9.42,2.2,2.17,5.2,3.37,8.45,3.37,5.17,0,9.31-2.92,10.8-7.62l.21-.65h-.57ZM300.5,37.2c3.3,0,5.41,1.78,5.72,4.8h-11.37c.39-2.39,2.25-4.8,5.65-4.8Z"/><path class="cls-1" d="M280.8,49.32h-.25l-.16.3c-1.07,1.96-2.87,2.96-5.37,2.96-3.41,0-6.02-2.45-6.35-5.89h17.14l.07-.45c.05-.3.1-.9.1-1.52,0-7.74-4.42-12.54-11.54-12.54-5.65,0-11.5,4.73-11.5,12.64,0,3.82,1.25,7.08,3.62,9.42,2.2,2.17,5.2,3.37,8.45,3.37,5.17,0,9.31-2.92,10.8-7.62l.21-.65h-.57s-4.09,0-4.67-.01ZM274.5,37.2c3.3,0,5.41,1.78,5.72,4.8h-11.37c.39-2.39,2.25-4.8,5.65-4.8Z"/><path class="cls-1" d="M201.6,49.32h-.25l-.16.3c-1.07,1.96-2.87,2.96-5.37,2.96-3.41,0-6.02-2.45-6.35-5.89h17.14l.07-.45c.05-.3.1-.9.1-1.52,0-7.74-4.42-12.54-11.54-12.54-5.65,0-11.5,4.73-11.5,12.64,0,3.82,1.25,7.08,3.62,9.42,2.2,2.17,5.2,3.37,8.45,3.37,5.17,0,9.31-2.92,10.8-7.62l.21-.65h-.57s-4.08,0-4.67-.01ZM195.3,37.2c3.3,0,5.41,1.78,5.72,4.8h-11.37c.39-2.39,2.25-4.8,5.65-4.8Z"/></svg>