<svg xmlns="http://www.w3.org/2000/svg" width="53.666" height="63.612" viewBox="0 0 53.666 63.612">
  <g id="businessman" transform="translate(-37.758 0)">
    <g id="Group_251" data-name="Group 251" transform="translate(37.758 0)">
      <path id="Path_96" data-name="Path 96" d="M136.617,26.971c.58,3.767,3.49,8.561,8.271,10.247a9.064,9.064,0,0,0,6.072-.013,13.7,13.7,0,0,0,8.3-10.234c.632-.053,1.462-.935,2.358-4.109,1.225-4.333-.079-4.979-1.185-4.873a11.487,11.487,0,0,0,.474-1.778c1.87-11.235-3.662-11.617-3.662-11.617a8.531,8.531,0,0,0-3.332-3.1A11.254,11.254,0,0,0,147.074.049a10.206,10.206,0,0,0-2.726.514h0a11.98,11.98,0,0,0-3,1.541,15.741,15.741,0,0,0-3.082,2.555,12.509,12.509,0,0,0-3.332,5.848,12.7,12.7,0,0,0,.026,5.716h0A11.1,11.1,0,0,0,135.431,18c-1.106-.105-2.41.54-1.185,4.873C135.155,26.036,135.985,26.918,136.617,26.971Z" transform="translate(-121.109 0)" fill="#fff"/>
      <path id="Path_97" data-name="Path 97" d="M86.312,280.032a41.773,41.773,0,0,1-12.2-5.558l-4.267,13.5-.8,2.542-.013-.039-.7,2.16-2.252-6.388c5.532-7.718-1.12-7.639-1.488-7.626-.369-.013-7.02-.092-1.488,7.626l-2.252,6.388-.7-2.16-.013.039-.8-2.542-4.281-13.5a41.773,41.773,0,0,1-12.2,5.558c-5.018,1.278-5.255,7.073-5.058,9.931,0,0,.29,3.885.58,5.6,0,0,9.8,6.362,26.21,6.375s26.21-6.375,26.21-6.375c.29-1.712.58-5.6.58-5.6C91.567,287.1,91.33,281.31,86.312,280.032Z" transform="translate(-37.758 -238.323)" fill="#fff"/>
    </g>
  </g>
</svg>
