<svg xmlns="http://www.w3.org/2000/svg" width="61.895" height="62.033" viewBox="0 0 61.895 62.033">
  <g id="pharmacy" transform="translate(-1.105 -1)">
    <path id="Path_71" data-name="Path 71" d="M37,49H33.485L20.534,32.593A2.995,2.995,0,1,0,18,34a2.947,2.947,0,0,0,.961-.172l1.274,1.614A4.851,4.851,0,0,1,18,36a5.083,5.083,0,1,1,4.821-3.743L25,35.019V22l4.4,10.565A2.334,2.334,0,0,0,33.721,30.8L28.509,17.772A6,6,0,0,0,22.938,14H12.062a6,6,0,0,0-5.571,3.772L1.279,30.8A2.334,2.334,0,0,0,5.6,32.565L10,22V59.967a3.033,3.033,0,1,0,6.065.066L16.5,40h2l.435,20.033A3.033,3.033,0,1,0,25,59.967V41.479l7.215,9.14A1,1,0,0,0,33,51h4Z" fill="#f0bc68"/>
    <path id="Path_72" data-name="Path 72" d="M40.5,13.5h5V21h-5Z" fill="#f0bc68"/>
    <path id="Path_73" data-name="Path 73" d="M48.5,8.25h5V21h-5Z" fill="#f0bc68"/>
    <path id="Path_74" data-name="Path 74" d="M56.5,3h5V21h-5Z" fill="#f0bc68"/>
    <path id="Path_75" data-name="Path 75" d="M39,23H63v2H39Z" fill="#f0bc68"/>
    <path id="Path_76" data-name="Path 76" d="M49.61,45.205a5,5,0,0,0-6.875,1.654l-5.221,8.529a5,5,0,1,0,8.528,5.219l5.222-8.528A5.006,5.006,0,0,0,49.61,45.2Zm-.052,5.831-2.09,3.414L42.35,51.318,44.441,47.9a3,3,0,1,1,5.117,3.133Z" fill="#f0bc68"/>
    <path id="Path_77" data-name="Path 77" d="M48.763,60a7.978,7.978,0,0,0,12.489-.019l-9.089-5.535Z" fill="#f0bc68"/>
    <path id="Path_78" data-name="Path 78" d="M55,47a7.983,7.983,0,0,0-1.409.132,6.983,6.983,0,0,1-.406,5.591l9.108,5.547A7.985,7.985,0,0,0,55,47Z" fill="#f0bc68"/>
    <circle id="Ellipse_6" data-name="Ellipse 6" cx="6" cy="6" r="6" transform="translate(11.5 1)" fill="#f0bc68"/>
    <path id="Path_79" data-name="Path 79" d="M34.515,6h3.669a3,3,0,1,0,0-2H34a1,1,0,0,0-.814.419l-5,7,1.628,1.162Z" fill="#f0bc68"/>
  </g>
</svg>
