<svg xmlns="http://www.w3.org/2000/svg" width="47.921" height="57.505" viewBox="0 0 47.921 57.505">
  <path id="path2" d="M34.782,4a2.4,2.4,0,0,1,2.367,2.4V59.109a2.4,2.4,0,0,1-2.365,2.4H8.4a2.4,2.4,0,0,1-2.4-2.4V19.337a7.19,7.19,0,0,1,4.732-6.757c7-2.542,23.2-8.437,23.2-8.437A2.429,2.429,0,0,1,34.71,4h.072Zm7.159,19.643,7.624,3.266a7.191,7.191,0,0,1,4.356,6.608V59.109a2.4,2.4,0,0,1-2.4,2.4H41.531a7.149,7.149,0,0,0,.41-2.4ZM25.2,44.733a2.4,2.4,0,0,0-.031-4.792H17.98a2.4,2.4,0,1,0,0,4.792H25.2Zm0-9.584a2.4,2.4,0,0,0-.031-4.792H17.98a2.4,2.4,0,1,0,0,4.792H25.2Zm0-9.584a2.4,2.4,0,0,0-.031-4.792H17.98a2.4,2.4,0,1,0,0,4.792H25.2Z" transform="translate(-6 -4)" fill="#fff" fill-rule="evenodd"/>
</svg>
