<svg id="Icon" xmlns="http://www.w3.org/2000/svg" width="58.021" height="58.02" viewBox="0 0 58.021 58.02">
  <path id="Path_12" data-name="Path 12" d="M39.649,59.27H8.671A7.417,7.417,0,0,1,1.25,51.849V8.671A7.417,7.417,0,0,1,8.671,1.25h23.17A4.711,4.711,0,0,1,35.18,2.634L47.091,14.546a4.711,4.711,0,0,1,1.384,3.338v11.2a16.5,16.5,0,0,0-5.581.135,4.72,4.72,0,0,0-3.454,2.823l-.459,1.106L37.792,33a4.718,4.718,0,0,0-4.172,1.579,16.545,16.545,0,0,0-3.182,5.511,4.72,4.72,0,0,0,.718,4.4l.731.953c-.37.483-.731.953-.731.953a4.72,4.72,0,0,0-.718,4.4A16.545,16.545,0,0,0,33.62,56.3a4.718,4.718,0,0,0,4.172,1.579l1.19-.154c.232.561.459,1.106.459,1.106.062.148.132.294.208.434ZM12.719,37.681H24.863a2.024,2.024,0,1,0,0-4.048H12.719a2.024,2.024,0,1,0,0,4.048ZM31.609,5.973v9.445a2.7,2.7,0,0,0,2.7,2.7h9.445ZM12.719,28.236H34.308a2.024,2.024,0,1,0,0-4.048H12.719a2.024,2.024,0,1,0,0,4.048Zm0,18.89H24.863a2.024,2.024,0,1,0,0-4.048H12.719a2.024,2.024,0,1,0,0,4.048Z" transform="translate(-1.25 -1.25)" fill="#f0bc68" fill-rule="evenodd"/>
  <path id="Path_13" data-name="Path 13" d="M30.308,13.968s.958,2.307.955,2.307a11.473,11.473,0,0,1,1.061.61l2.477-.324a2.029,2.029,0,0,1,1.786.677,13.894,13.894,0,0,1,2.664,4.612,2.024,2.024,0,0,1-.31,1.886s-1.517,1.983-1.517,1.981a11.544,11.544,0,0,1,0,1.222l1.517,1.983a2.024,2.024,0,0,1,.31,1.886,13.894,13.894,0,0,1-2.664,4.612A2.029,2.029,0,0,1,34.8,36.1s-2.477-.324-2.475-.327a11.243,11.243,0,0,1-1.061.613l-.958,2.307A2.019,2.019,0,0,1,28.829,39.9a13.822,13.822,0,0,1-5.327,0,2.019,2.019,0,0,1-1.479-1.209s-.958-2.307-.955-2.307a11.129,11.129,0,0,1-1.061-.61L17.53,36.1a2.027,2.027,0,0,1-1.786-.677A13.8,13.8,0,0,1,13.08,30.81a2.031,2.031,0,0,1,.308-1.886s1.519-1.983,1.519-1.981a11.545,11.545,0,0,1,0-1.222l-1.519-1.983a2.031,2.031,0,0,1-.308-1.886,13.8,13.8,0,0,1,2.664-4.612,2.027,2.027,0,0,1,1.786-.677s2.477.324,2.475.327a10.914,10.914,0,0,1,1.061-.613l.958-2.307A2.019,2.019,0,0,1,23.5,12.759a13.822,13.822,0,0,1,5.327,0,2.019,2.019,0,0,1,1.479,1.209Zm-4.142,8.314a4.048,4.048,0,1,0,4.048,4.048A4.049,4.049,0,0,0,26.166,22.282Z" transform="translate(18.661 17.859)" fill="#f0bc68" fill-rule="evenodd"/>
</svg>
