<svg xmlns="http://www.w3.org/2000/svg" width="53.005" height="62.033" viewBox="0 0 53.005 62.033">
  <g id="premium-badge" transform="translate(-26.93)">
    <g id="Layer_5_21_" transform="translate(26.93)">
      <g id="Group_215" data-name="Group 215" transform="translate(0)">
        <path id="Path_80" data-name="Path 80" d="M79.692,52.708l-8.12-13.956c1.405-.429,2.9-.807,3.524-1.881,1.037-1.789-.809-4.725-.324-6.643.5-1.974,3.445-3.682,3.445-5.689,0-1.955-3.046-4.239-3.545-6.2-.488-1.918,1.352-4.856.312-6.643s-4.5-1.641-5.929-3.012c-1.467-1.412-1.462-4.866-3.232-5.812s-4.664.97-6.637.515C57.236,2.936,55.493,0,53.456,0,51.389,0,48.1,3.331,47.586,3.451c-1.972.458-4.863-1.456-6.638-.5s-1.757,4.4-3.221,5.818C36.3,10.141,32.84,10,31.8,11.79s.809,4.724.324,6.643-3.534,3.873-3.534,6.1c0,2.007,2.953,3.709,3.456,5.682.488,1.918-1.352,4.856-.312,6.644.566.973,1.851,1.373,3.133,1.757.15.045.433.212.241.492L27.17,52.81a1.132,1.132,0,0,0,1.014,1.848l5.479.228a4.362,4.362,0,0,1,3.121,1.808l2.924,4.639a1.132,1.132,0,0,0,2.107-.04S50,47.172,50,47.168c.164-.192.329-.152.408-.085A5.663,5.663,0,0,0,53.591,48.6a4.9,4.9,0,0,0,2.9-1.514c.076-.065.261-.2.4.078l8.173,14.05a1.132,1.132,0,0,0,2.107.036l2.915-4.645A4.362,4.362,0,0,1,73.2,54.8l5.478-.239A1.132,1.132,0,0,0,79.692,52.708ZM62.511,40a18.158,18.158,0,1,1-.363-31.658l.135.075.191.107A18.191,18.191,0,0,1,62.511,40Z" transform="translate(-26.93)" fill="#f0bc68"/>
        <path id="Path_81" data-name="Path 81" d="M116.35,55.6l-.076-.043a15.308,15.308,0,0,0-15.805,26.216c.174.11.35.219.53.323A15.311,15.311,0,1,0,116.35,55.6Zm1.828,11.943-2.558,2.493a4.3,4.3,0,0,0-1.1,3.387l.6,3.521c.187,1.09-.461,1.561-1.44,1.047l-3.162-1.662a4.3,4.3,0,0,0-3.561,0L103.8,77.995c-.979.515-1.628.044-1.441-1.047l.6-3.521a4.3,4.3,0,0,0-1.1-3.387L99.3,67.548c-.792-.772-.545-1.534.55-1.693l3.535-.514a4.3,4.3,0,0,0,2.881-2.093l1.581-3.2c.49-.992,1.291-.992,1.78,0l1.581,3.2a4.3,4.3,0,0,0,2.881,2.093l3.535.514C118.722,66.013,118.97,66.775,118.178,67.548Z" transform="translate(-82.154 -44.523)" fill="#f0bc68"/>
      </g>
    </g>
  </g>
</svg>
