<svg xmlns="http://www.w3.org/2000/svg" width="56.859" height="56.86" viewBox="0 0 56.859 56.86">
  <g id="regulation" transform="translate(0.001)">
    <path id="Path_69" data-name="Path 69" d="M49.025,41.875,36.34,31.142l5.2-5.2a1.838,1.838,0,0,0,2.6,0l2.6-2.6a1.838,1.838,0,0,0,0-2.6l-13-13a1.838,1.838,0,0,0-2.6,0l-2.6,2.6a1.838,1.838,0,0,0,0,2.6L12.948,28.542a1.838,1.838,0,0,0-2.6,0l-2.6,2.6a1.838,1.838,0,0,0,0,2.6l13,13a1.838,1.838,0,0,0,2.6,0l2.6-2.6a1.838,1.838,0,0,0,0-2.6l5.2-5.2L41.874,49.025a5.072,5.072,0,1,0,7.149-7.149Z" transform="translate(6.041 6.042)" fill="#f0bc68"/>
    <path id="Path_70" data-name="Path 70" d="M34.919,0H5.513A5.53,5.53,0,0,0,0,5.513V45.946a5.53,5.53,0,0,0,5.513,5.514H20.271L11.192,42.38a5.5,5.5,0,0,1,0-7.792l1.5-1.507h-3.5a1.838,1.838,0,0,1,0-3.676h3.676A1.838,1.838,0,0,1,14.7,31.243v.006a5.636,5.636,0,0,1,3.291-.87l4.829-4.829a1.811,1.811,0,0,1-.767.179H9.189a1.838,1.838,0,1,1,0-3.676H22.054a1.838,1.838,0,0,1,1.838,1.838,1.81,1.81,0,0,1-.18.768l6.667-6.667a5.605,5.605,0,0,1,1.6-4.209l2.61-2.591a5.523,5.523,0,0,1,5.844-1.268V5.514A5.53,5.53,0,0,0,34.919,0ZM27.567,18.378H9.189a1.838,1.838,0,1,1,0-3.676H27.567a1.838,1.838,0,0,1,0,3.676Zm3.676-7.351H9.189a1.838,1.838,0,0,1,0-3.676H31.243a1.838,1.838,0,1,1,0,3.676Z" transform="translate(-0.001)" fill="#f0bc68"/>
  </g>
</svg>
